<?xml version="1.0" standalone="no"?>
<!DOCTYPE svg PUBLIC "-//W3C//DTD SVG 20010904//EN"
 "http://www.w3.org/TR/2001/REC-SVG-20010904/DTD/svg10.dtd">
<svg version="1.0" xmlns="http://www.w3.org/2000/svg"
 width="660.000000pt" height="660.000000pt" viewBox="0 0 660.000000 660.000000"
 preserveAspectRatio="xMidYMid meet">
<metadata>
Created by potrace 1.11, written by Peter Selinger 2001-2013
</metadata>
<g transform="translate(0.000000,660.000000) scale(0.100000,-0.100000)"
fill="#000000" stroke="none">
<path d="M883 6586 c-181 -44 -334 -202 -372 -384 -16 -75 -16 -5729 0 -5804
39 -187 200 -348 387 -387 75 -16 4729 -16 4804 0 187 39 348 200 387 387 16
75 16 5729 0 5804 -39 187 -200 348 -387 387 -81 17 -4748 14 -4819 -3z m4772
-120 c152 -40 263 -142 326 -301 l24 -60 3 -2773 c2 -3023 6 -2842 -54 -2968
-53 -112 -190 -216 -322 -243 -74 -15 -4564 -16 -4647 0 -166 31 -318 171
-361 333 -12 43 -14 511 -14 2849 0 2788 0 2798 20 2858 51 149 154 250 310
300 52 17 179 18 2360 18 1894 1 2314 -2 2355 -13z"/>
<path d="M932 3908 l3 -2223 2345 0 2345 0 3 2223 2 2222 -2350 0 -2350 0 2
-2222z m3063 1261 c63 -18 118 -62 150 -121 24 -44 30 -68 33 -139 5 -103 -8
-150 -49 -180 -54 -38 -431 -136 -886 -228 -103 -21 -204 -45 -224 -54 -47
-19 -64 -42 -376 -509 -337 -503 -455 -693 -678 -1088 -179 -319 -241 -373
-430 -373 -177 -1 -275 78 -275 218 0 54 8 71 201 428 111 205 225 415 254
467 60 110 148 272 264 486 44 83 81 158 81 167 0 40 -31 36 -295 -34 -143
-38 -293 -78 -334 -89 -117 -31 -192 -23 -251 26 -111 94 -118 272 -14 376 89
89 111 96 644 207 711 149 697 146 1055 237 362 92 671 166 810 194 102 21
261 25 320 9z m1350 -193 c62 -41 125 -170 125 -254 -1 -59 -15 -90 -65 -144
-21 -24 -84 -92 -140 -153 -658 -718 -1251 -1312 -1681 -1686 -124 -107 -289
-226 -384 -275 -75 -39 -160 -39 -249 1 -159 72 -254 286 -210 475 6 25 53
142 106 260 114 257 392 922 418 1000 42 129 111 227 181 256 109 46 290 -31
348 -147 20 -41 26 -68 26 -120 0 -81 -13 -119 -94 -279 -97 -190 -154 -348
-139 -386 9 -23 42 -27 73 -7 16 10 208 194 427 408 837 821 1063 1036 1118
1061 37 17 106 12 140 -10z"/>
<path d="M1637 1543 c-17 -28 -37 -128 -37 -184 0 -86 35 -197 56 -177 3 3 -2
30 -10 59 -20 66 -20 181 -1 245 17 58 18 64 6 64 -6 0 -12 -3 -14 -7z"/>
<path d="M2413 1537 c33 -87 39 -223 13 -296 -22 -60 -4 -81 21 -25 26 60 30
216 6 278 -10 27 -24 51 -32 54 -10 3 -12 0 -8 -11z"/>
<path d="M1735 1478 c-19 -67 -19 -152 1 -211 17 -50 41 -67 29 -19 -21 80
-21 180 -1 255 5 17 4 27 -3 27 -5 0 -17 -23 -26 -52z"/>
<path d="M2305 1509 c28 -88 31 -141 11 -219 -16 -63 -10 -86 12 -44 22 41 28
188 9 238 -15 44 -45 66 -32 25z"/>
<path d="M1860 1480 c-28 -53 -19 -220 11 -220 7 0 8 7 4 18 -14 36 -17 123
-6 168 13 52 9 67 -9 34z"/>
<path d="M2197 1478 c4 -13 8 -57 8 -98 0 -41 -4 -85 -8 -97 -5 -14 -4 -23 1
-23 16 0 32 59 32 120 0 61 -16 120 -32 120 -5 0 -6 -9 -1 -22z"/>
<path d="M1961 1464 c-90 -75 -11 -218 101 -184 88 26 106 148 28 193 -42 25
-93 22 -129 -9z"/>
<path d="M5210 1003 c0 -406 -1 -401 82 -445 39 -21 56 -23 203 -23 l160 0 0
75 0 75 -100 5 c-103 5 -137 16 -155 50 -5 10 -10 68 -10 129 l0 111 135 0
136 0 -3 77 -3 76 -45 2 c-25 0 -84 2 -132 3 l-88 2 0 110 0 110 -90 0 -90 0
0 -357z"/>
<path d="M930 840 l0 -300 387 0 c371 0 388 1 429 21 24 11 53 35 64 54 20 32
21 46 18 234 -3 197 -3 200 -28 227 -14 14 -43 35 -65 45 -37 17 -72 19 -422
19 l-383 0 0 -300z m654 136 c52 -22 66 -50 66 -134 0 -86 -18 -126 -63 -142
-45 -15 -464 -13 -469 3 -3 6 -6 71 -7 144 -2 130 -2 131 21 136 13 2 112 5
221 6 149 1 206 -2 231 -13z"/>
<path d="M2325 1127 c-58 -23 -77 -39 -96 -80 -16 -37 -19 -68 -19 -274 l0
-233 90 0 90 0 0 183 c0 270 2 272 296 265 144 -3 175 -6 198 -22 16 -10 31
-27 33 -37 5 -17 15 -19 99 -19 l94 0 0 56 c0 68 -24 112 -78 146 -36 23 -42
23 -357 25 -230 1 -328 -1 -350 -10z"/>
<path d="M3325 1127 c-106 -42 -117 -73 -113 -304 3 -165 5 -184 24 -209 57
-77 96 -84 454 -81 276 2 287 3 332 25 49 24 88 73 88 111 0 21 -1 21 -357 23
l-358 3 0 30 0 30 358 3 357 2 0 134 c0 122 -2 136 -22 166 -13 18 -41 43 -63
54 -38 20 -57 21 -355 23 -225 1 -324 -2 -345 -10z m562 -163 c15 -12 29 -29
31 -38 3 -14 -21 -16 -257 -16 -144 0 -261 3 -261 8 0 19 34 53 63 61 18 6
114 9 214 8 167 -2 184 -4 210 -23z"/>
<path d="M4325 1128 c-16 -6 -42 -20 -58 -30 -52 -37 -57 -60 -57 -264 0 -178
1 -189 23 -221 12 -18 42 -43 67 -56 44 -22 52 -22 425 -22 l380 0 0 75 0 75
-325 5 c-347 5 -362 8 -380 56 -13 33 -13 145 0 178 21 55 30 57 381 59 l324
2 3 78 3 77 -378 -1 c-240 0 -389 -4 -408 -11z"/>
<path d="M1940 835 l0 -296 88 3 87 3 3 293 2 292 -90 0 -90 0 0 -295z"/>
</g>
</svg>
